<svg xmlns="http://www.w3.org/2000/svg" width="1024" height="1024" viewBox="0 0 1024 1024">
<g>
<path d="M 353.48 795.91 C346.48,799.99 339.80,803.48 338.63,803.66 C335.70,804.12 330.59,801.68 328.63,798.88 C326.24,795.47 326.62,789.62 330.12,775.81 C332.81,765.20 333.31,761.19 333.74,746.74 C334.33,726.66 332.96,717.39 326.38,696.89 L 322.01 683.27 L 315.75 681.01 C291.08,672.08 265.65,656.10 245.62,636.96 C211.99,604.81 190.93,564.46 183.46,517.90 C181.24,504.05 180.19,432.00 181.93,413.19 C184.31,387.63 190.75,364.89 202.06,342.18 C222.87,300.37 255.52,267.91 298.61,246.14 C318.00,236.35 333.44,230.84 354.00,226.37 C378.37,221.07 379.89,221.02 512.50,221.02 C643.48,221.02 645.73,221.09 668.00,225.95 C751.69,244.21 817.15,308.05 837.36,391.12 C842.25,411.22 843.20,420.60 843.72,454.02 C844.44,499.87 842.03,520.10 832.42,549.00 C821.75,581.05 805.70,607.20 781.58,631.83 C749.75,664.33 714.72,683.05 668.50,692.24 C657.73,694.39 655.53,694.44 562.38,694.76 L 467.25 695.08 L 456.76 706.81 C423.19,744.30 383.90,778.19 353.48,795.91 Z" fill="rgb(36,98,233)"/>
<path d="M 0.00 512.00 L 0.00 0.00 L 512.00 0.00 L 1024.00 0.00 L 1024.00 512.00 L 1024.00 1024.00 L 512.00 1024.00 L 0.00 1024.00 L 0.00 512.00 ZM 353.48 795.91 C383.90,778.19 423.19,744.30 456.76,706.81 L 467.25 695.08 L 562.38 694.76 C655.53,694.44 657.73,694.39 668.50,692.24 C714.72,683.05 749.75,664.33 781.58,631.83 C805.70,607.20 821.75,581.05 832.42,549.00 C842.03,520.10 844.44,499.87 843.72,454.02 C843.20,420.60 842.25,411.22 837.36,391.12 C817.15,308.05 751.69,244.21 668.00,225.95 C645.73,221.09 643.48,221.02 512.50,221.02 C379.89,221.02 378.37,221.07 354.00,226.37 C333.44,230.84 318.00,236.35 298.61,246.14 C255.52,267.91 222.87,300.37 202.06,342.18 C190.75,364.89 184.31,387.63 181.93,413.19 C180.19,432.00 181.24,504.05 183.46,517.90 C190.93,564.46 211.99,604.81 245.62,636.96 C265.65,656.10 291.08,672.08 315.75,681.01 L 322.01 683.27 L 326.38 696.89 C332.96,717.39 334.33,726.66 333.74,746.74 C333.31,761.19 332.81,765.20 330.12,775.81 C326.62,789.62 326.24,795.47 328.63,798.88 C330.59,801.68 335.70,804.12 338.63,803.66 C339.80,803.48 346.48,799.99 353.48,795.91 Z" fill="rgb(254,254,254)"/>
</g>
</svg>